<svg width="130" height="96" viewBox="0 0 130 96" fill="none" xmlns="http://www.w3.org/2000/svg">
<g clip-path="url(#clip0_30_8300)">
<path fill-rule="evenodd" clip-rule="evenodd" d="M23.0796 81.3689C22.5918 79.0492 20.7001 78.4319 18.5795 78.2328C11.7198 77.5956 10.5052 82.7429 10.5052 84.9033C10.5052 88.6169 11.5805 91.6833 18.3207 91.6833C19.5552 91.6833 22.99 90.409 22.99 88.3282H32.6672C32.2789 94.5009 21.9148 95.9843 17.4047 95.9843C8.04608 95.9843 0.0315115 94.2321 0.419795 85.0327C0.698562 78.4319 6.92105 73.8024 19.3362 74.0812C26.2357 74.2405 32.8564 76.4009 32.8863 81.3988L23.0796 81.3689Z" fill="#02033B"/>
<path fill-rule="evenodd" clip-rule="evenodd" d="M120.072 81.3689C119.594 79.0492 117.702 78.4319 115.581 78.2328C108.722 77.5956 107.507 82.7429 107.507 84.9033C107.507 88.6169 108.582 91.6833 115.323 91.6833C116.557 91.6833 119.982 90.409 119.982 88.3282H129.679C129.281 94.5009 118.927 95.9843 114.407 95.9843C105.048 95.9843 97.0335 94.2321 97.4217 85.0327C97.7005 78.4319 103.923 73.8024 116.338 74.0812C123.238 74.2405 129.858 76.4009 129.888 81.3988L120.072 81.3689Z" fill="#02033B"/>
<path fill-rule="evenodd" clip-rule="evenodd" d="M34.5586 74.4994H47.133L57.8656 89.5927H57.9452V74.4994H66.0095V95.407H53.9628L42.7125 80.3535H42.6229V95.4269H34.5586V74.4994Z" fill="#02033B"/>
<path fill-rule="evenodd" clip-rule="evenodd" d="M68.498 74.4994H83.7606C91.1081 74.4994 95.419 76.5503 95.419 79.6566C95.419 81.4885 93.617 83.7585 89.5848 84.4255V84.4852C94.4334 84.764 96.2255 87.8404 96.2255 89.6823C96.2255 93.3759 92.0141 95.4269 83.8103 95.4269H68.498V74.4994ZM77.329 82.6235H79.8678C83.7705 82.6235 85.8414 82.3148 85.8414 80.692C85.8414 79.0692 84.119 78.3723 80.6145 78.3723H77.339V82.6235H77.329ZM77.329 91.0363H79.8678C84.567 91.0363 86.2894 90.5385 86.2894 88.9157C86.2894 87.2928 84.119 86.6059 80.6045 86.6059H77.339V91.0363H77.329Z" fill="#02033B"/>
<path fill-rule="evenodd" clip-rule="evenodd" d="M108.571 42.4113L72.5801 66.4848L84.7065 37.6623L90.4511 24.2515C92.7011 19.9506 97.1116 17.2027 101.96 17.0733C106.52 17.0434 110.771 19.3731 113.191 23.236C115.839 27.2184 115.988 33.6699 113.34 37.6722C112.095 39.5638 110.473 41.1767 108.581 42.4212" fill="#02033B"/>
<path fill-rule="evenodd" clip-rule="evenodd" d="M90.6506 19.6817L72.8493 61.7656L72.0927 57.1759L66.7065 22.6784C66.4476 20.6872 67.3536 18.7259 69.0362 17.6208L71.5849 16.0975C71.7343 15.5699 70.9876 15.3906 70.6391 15.2214L65.6611 15.1716C65.014 8.01327 70.2907 1.69122 77.449 1.03412C79.5497 0.844957 81.6703 1.16355 83.6118 1.97994C88.4404 4.11052 91.5965 8.83961 91.7159 14.1163C91.7159 16.0179 91.3575 17.9095 90.6506 19.6717" fill="#02033B"/>
<path fill-rule="evenodd" clip-rule="evenodd" d="M56.4622 61.9149L38.9396 19.7314C37.038 14.9924 37.8544 9.59624 41.0702 5.63376C44.3358 1.8007 49.5129 0.187832 54.3814 1.47215C58.9014 2.80626 62.4059 6.39041 63.6305 10.9403C64.0387 12.6925 64.1482 14.4946 63.9491 16.2867L56.4622 61.9149Z" fill="#02033B"/>
<path fill-rule="evenodd" clip-rule="evenodd" d="M19.007 40.888C15.4826 37.9211 13.7204 33.3513 14.3476 28.7914C15.0346 23.7139 18.4893 19.4328 23.308 17.6806C27.9674 16.1673 33.0848 17.4118 36.5295 20.8963C37.8537 22.2305 38.8991 23.8234 39.6059 25.5657L56.5311 66.5545L19.007 40.888Z" fill="#02033B"/>
<path fill-rule="evenodd" clip-rule="evenodd" d="M15.1555 70.8355C10.6156 70.3975 6.63317 67.6098 4.66189 63.488C2.46161 58.8186 2.97933 53.3229 6.0159 49.1414C9.28146 45.2287 13.9807 43.2574 18.7695 44.2331C20.5915 44.5716 22.3338 45.2984 23.867 46.3438L60.3059 70.8355H15.1555Z" fill="#02033B"/>
<path fill-rule="evenodd" clip-rule="evenodd" d="M114.088 70.8355C118.638 70.4074 122.63 67.6098 124.581 63.478C126.782 58.8087 126.264 53.313 123.237 49.1414C119.972 45.2287 115.273 43.2574 110.474 44.2331C108.652 44.5816 106.91 45.2984 105.376 46.3438L68.9375 70.8355H114.088Z" fill="#02033B"/>
</g>
<defs>
<clipPath id="clip0_30_8300">
<rect width="129.428" height="95" fill="white" transform="translate(0.410156 0.984375)"/>
</clipPath>
</defs>
</svg>
