<svg width="37" height="36" viewBox="0 0 37 36" fill="none" xmlns="http://www.w3.org/2000/svg">
<path d="M32.7337 0H4.45375C3.43001 0 2.44821 0.406677 1.72432 1.13057C1.00043 1.85446 0.59375 2.83626 0.59375 3.86L0.59375 32.14C0.59375 33.1637 1.00043 34.1455 1.72432 34.8694C2.44821 35.5933 3.43001 36 4.45375 36H15.4537V23.76H10.4137V18H15.4838V13.61C15.4838 8.61 18.4837 5.86 23.0037 5.86C24.5013 5.87978 25.9954 6.01014 27.4737 6.25V11.15H24.9538C22.4838 11.15 21.7038 12.68 21.7038 14.26V18H27.2337L26.3538 23.76H21.7038V36H32.7038C33.2132 36.004 33.7183 35.907 34.1901 35.7148C34.6619 35.5226 35.091 35.2389 35.4526 34.8801C35.8142 34.5213 36.1012 34.0944 36.2971 33.6241C36.4929 33.1538 36.5938 32.6494 36.5938 32.14V3.86C36.5938 2.83626 36.1871 1.85446 35.4632 1.13057C34.7393 0.406677 33.7575 0 32.7337 0V0Z" fill="white"/>
</svg>
