<svg width="118" height="43" viewBox="0 0 118 43" fill="none" xmlns="http://www.w3.org/2000/svg">
<path d="M0 42.52H42.52V0H0V42.52ZM20.02 10.24C19.35 8.1 18.62 7.41 14.85 7.41H11.94C11.06 7.41 10.87 7.6 10.87 8.39V14.46H12.29C15.29 14.46 15.93 13.91 16.29 11.9H17.02V18.68H16.29C15.89 16.42 14.76 15.85 12.29 15.85H10.86V22.18C10.86 24.19 11.4 24.42 13.69 24.51V25.24H4.61V24.49C6.5 24.41 7.04 24.18 7.04 22.16V9.07C7.04 7.06 6.5 6.83 4.67 6.75V6.02H20.72L20.82 10.25H20.02V10.24ZM38.26 10.24C37.65 8.17 36.75 7.41 34.72 7.41H32.35V22.16C32.35 24.17 32.87 24.4 35.05 24.49V25.24H25.79V24.51C27.95 24.43 28.49 24.2 28.49 22.18V7.43H26.13C24.12 7.43 23.2 8.18 22.59 10.26H21.63L22.03 6.03H38.87L39.23 10.26H38.26V10.24Z" fill="#02033B"/>
<path d="M51.8791 17.69C51.8791 18.69 52.1591 18.77 53.2691 18.81V19.17H48.8491V18.81C49.7691 18.77 50.0491 18.65 50.0491 17.69V11.32C50.0491 10.32 49.7691 10.24 48.8991 10.2V9.84003H56.7091L56.7491 11.91H56.3491C56.0291 10.87 55.6691 10.56 53.8391 10.56H52.4091C51.9691 10.56 51.8891 10.64 51.8891 11.04V13.99H53.4891C54.9591 13.99 55.2791 13.71 55.4391 12.75H55.7991V16.06H55.4391C55.2391 14.94 54.6791 14.67 53.4891 14.67H51.8891V17.7L51.8791 17.69ZM61.0791 17.69C61.0791 18.69 61.3591 18.77 62.4691 18.81V19.17H57.8591V18.81C58.9791 18.77 59.2491 18.65 59.2491 17.69V11.32C59.2491 10.32 59.0091 10.24 57.8591 10.2V9.84003H62.4791V10.2C61.3591 10.24 61.0891 10.36 61.0891 11.32V17.69H61.0791ZM72.1091 11.56C72.1091 10.64 71.8691 10.28 70.8391 10.17V9.81003H74.1491V10.17C73.1091 10.29 72.8791 10.65 72.8791 11.56V19.37H72.3991L66.0291 12V17.42C66.0291 18.34 66.2691 18.7 67.2991 18.81V19.17H63.9891V18.81C65.0291 18.69 65.2591 18.33 65.2591 17.42V11.13C65.0191 10.62 64.5391 10.27 63.9891 10.17V9.81003H66.5391L72.1191 16.26V11.56H72.1091ZM77.0891 15.82L78.4791 12.12L79.8691 15.82H77.0891ZM83.7791 19.17V18.81C83.0591 18.81 82.8991 18.53 82.5391 17.66L79.2291 9.61003H78.7891L75.3691 17.94C75.1991 18.44 74.7391 18.79 74.2191 18.82V19.18H77.2091V18.82C76.5691 18.82 76.2491 18.66 76.2491 18.22C76.3691 17.63 76.5391 17.06 76.7691 16.51H80.1591C80.4091 17.06 80.5891 17.63 80.7191 18.22C80.7191 18.66 80.3591 18.82 79.7191 18.82V19.18H83.7791V19.17ZM92.8591 11.54C92.8591 10.62 92.6191 10.26 91.5891 10.15V9.79003H94.8991V10.15C93.8591 10.27 93.6291 10.63 93.6291 11.54V19.35H93.1491L86.7891 11.98V17.4C86.7891 18.32 87.0291 18.68 88.0591 18.79V19.15H84.7491V18.79C85.7891 18.67 86.0191 18.31 86.0191 17.4V11.11C85.7791 10.6 85.2991 10.25 84.7491 10.15V9.79003H87.2991L92.8791 16.24V11.54H92.8591ZM104.679 16.96C103.889 18.52 102.249 19.48 100.499 19.39C97.4691 19.39 95.6391 17.4 95.6391 14.41C95.6691 11.72 97.8691 9.56003 100.559 9.59003H100.579C101.459 9.69003 102.329 9.88003 103.169 10.15C103.449 10.15 103.529 9.99003 103.769 9.59003H104.249L104.449 12.7H104.049C103.679 11.26 102.389 10.23 100.899 10.19C98.7091 10.19 97.7491 12.58 97.7491 14.37C97.7491 16.88 98.8191 18.59 101.179 18.59C102.519 18.54 103.739 17.8 104.409 16.64L104.689 16.96H104.679ZM109.179 17.68C109.179 18.68 109.459 18.76 110.569 18.8V19.16H105.959V18.8C107.079 18.76 107.349 18.64 107.349 17.68V11.31C107.349 10.31 107.069 10.23 105.959 10.19V9.83003H110.579V10.19C109.459 10.23 109.189 10.35 109.189 11.31V17.68H109.179ZM114.389 15.81L115.779 12.11L117.169 15.81H114.389ZM121.079 19.16V18.8C120.359 18.8 120.199 18.52 119.839 17.65L116.529 9.60003H116.089L112.669 17.93C112.499 18.43 112.039 18.78 111.519 18.81V19.17H114.509V18.81C113.869 18.81 113.549 18.65 113.549 18.21C113.669 17.62 113.839 17.05 114.069 16.5H117.459C117.699 17.05 117.889 17.62 118.019 18.21C118.019 18.65 117.659 18.81 117.019 18.81V19.17H121.079V19.16ZM121.919 19.16V18.8C122.799 18.76 123.069 18.64 123.069 17.68V11.31C123.069 10.31 122.789 10.23 121.919 10.19V9.83003H126.219V10.19C125.179 10.23 124.949 10.35 124.949 11.31V17.88C124.949 18.44 125.109 18.64 126.149 18.64C127.819 18.64 128.819 18.32 129.609 16.69H129.969L129.329 19.2H121.919V19.16ZM50.8591 33.9C51.9291 33.86 52.1691 33.74 52.1691 32.78V25.61H51.0191C49.9491 25.61 49.5091 26.05 49.1891 27.32H48.7891L49.0291 24.93H57.2391L57.4791 27.32H57.0791C56.7591 26.04 56.3591 25.61 55.2491 25.61H54.0991V32.78C54.0991 33.78 54.3791 33.86 55.4191 33.9V34.26H50.9191V33.9H50.8591ZM61.6591 32.78C61.6591 33.78 61.9391 33.86 63.0491 33.9V34.26H58.4291V33.9C59.5491 33.86 59.8191 33.74 59.8191 32.78V26.41C59.8191 25.41 59.5391 25.33 58.4291 25.29V24.93H63.0591V25.29C61.9391 25.33 61.6691 25.45 61.6691 26.41V32.78H61.6591ZM72.8491 24.89H76.0791V25.25C75.1991 25.29 74.9291 25.41 74.9291 26.37V32.74C74.9291 33.74 75.2091 33.82 76.0791 33.86V34.22H71.8491V33.86C72.7691 33.82 73.0491 33.7 73.0491 32.74V26.17H73.0091L69.8991 34.34H69.4591L66.3891 26.17H66.3491V32.46C66.3491 33.38 66.5891 33.74 67.6191 33.85V34.21H64.3091V33.85C65.3491 33.73 65.5791 33.37 65.5791 32.46V26.09C65.5791 25.45 65.2991 25.21 64.3091 25.21V24.85H67.6991L70.1691 31.34L72.8391 24.89H72.8491ZM77.3891 34.25V33.89C78.2691 33.85 78.5391 33.73 78.5391 32.77V26.4C78.5391 25.4 78.2591 25.32 77.3891 25.28V24.92H85.1991L85.2391 26.99H84.8391C84.5191 25.95 84.1591 25.64 82.3291 25.64H80.8991C80.4591 25.64 80.3791 25.72 80.3791 26.12V29.07H81.9691C83.4391 29.07 83.7591 28.79 83.9191 27.83H84.2791V31.14H83.9191C83.7191 30.02 83.1591 29.79 81.9691 29.79H80.3791V33.02C80.3791 33.58 80.5391 33.78 82.2091 33.78C83.8791 33.78 84.8791 33.46 85.6691 31.83H86.0291L85.3891 34.34H77.3791V34.26H77.3891V34.25ZM87.2691 31.28H87.6291C88.0091 32.64 89.1691 33.65 90.5791 33.83C91.3891 33.9 92.0991 33.31 92.1691 32.5V32.28C92.1691 30.13 87.3091 29.73 87.3091 27.06C87.4191 25.68 88.5891 24.63 89.9791 24.67C90.8291 24.75 91.6691 24.91 92.4891 25.15C92.7491 25.15 92.9591 24.93 92.9691 24.67H93.3291V27.66H92.9691C92.7291 26.37 91.6491 25.41 90.3391 25.31C89.6291 25.23 88.9991 25.73 88.9091 26.44V26.63C88.9091 28.54 93.7691 28.58 93.7691 31.89C93.7291 33.36 92.4991 34.53 91.0291 34.49H90.8591C89.2291 34.49 88.7891 33.93 88.1491 33.93C87.9091 33.93 87.7491 34.09 87.6691 34.41H87.1891L87.2691 31.3V31.28Z" fill="#02033B"/>
</svg>
