<svg width="44" height="54" viewBox="0 0 44 54" fill="none" xmlns="http://www.w3.org/2000/svg">
<path d="M31.484 33.981C30.9294 33.7121 30.2929 33.6656 29.7051 33.851C29.1172 34.0364 28.6226 34.4398 28.3227 34.9783C28.0834 35.3672 27.844 35.7461 27.5947 36.1151C27.167 36.7559 26.7077 37.375 26.2185 37.9701C25.6954 38.6033 25.0389 39.1132 24.2959 39.4632C23.5528 39.8132 22.7416 39.9947 21.9202 39.9947C21.0989 39.9947 20.2877 39.8132 19.5446 39.4632C18.8016 39.1132 18.1451 38.6033 17.622 37.9701C17.1433 37.3717 16.6846 36.7434 16.2458 36.0952C14.0038 32.6442 12.4557 28.7894 11.6883 24.7463C11.233 22.5306 10.9463 20.2837 10.8306 18.0247C10.7545 16.5748 11.1961 15.145 12.0766 13.9906C12.957 12.8361 14.2191 12.0321 15.6374 11.7219H15.7172C17.7694 11.2896 19.8485 10.9964 21.9402 10.8444C24.0316 10.9935 26.1107 11.2834 28.1631 11.712H28.233C29.6494 12.0265 30.9082 12.8337 31.7849 13.9899C32.6616 15.146 33.0992 16.5759 33.0198 18.0247C33.0198 18.4635 33.0198 18.9123 32.9301 19.381C32.9 19.6997 32.9336 20.0212 33.029 20.3268C33.1244 20.6324 33.2796 20.916 33.4857 21.161C33.6917 21.406 33.9445 21.6076 34.2292 21.754C34.5139 21.9004 34.8249 21.9887 35.144 22.0138L41.0479 22.4825C41.365 22.5098 41.6844 22.4741 41.9877 22.3774C42.291 22.2807 42.5722 22.125 42.815 21.9193C43.0579 21.7135 43.2576 21.4617 43.4028 21.1784C43.5479 20.8951 43.6356 20.5859 43.6607 20.2685C43.9416 16.796 43.9182 13.3056 43.5909 9.83711C43.5093 9.02429 43.2661 8.23596 42.8756 7.5184C42.4852 6.80085 41.9553 6.16852 41.3171 5.65856C35.7723 1.28055 25.67 0.303223 22.738 0.073851C22.1969 0.0339768 21.6536 0.0339768 21.1125 0.073851C18.1905 0.303223 8.07815 1.28055 2.53334 5.64858C1.8949 6.15752 1.36544 6.78977 0.976516 7.50765C0.587591 8.22554 0.347155 9.01437 0.269537 9.82714C-0.458469 17.187 -1.12664 41.3109 19.1578 53.1784C19.9979 53.6681 20.9528 53.9262 21.9252 53.9262C22.8976 53.9262 23.8526 53.6681 24.6926 53.1784C30.1506 50.0208 34.6832 45.4848 37.8366 40.0244C38.1594 39.4674 38.2483 38.8051 38.0838 38.1827C37.9194 37.5603 37.5149 37.0284 36.9591 36.7035L36.8095 36.6237L31.484 33.981Z" fill="#FFC247"/>
</svg>
