<svg width="131" height="21" viewBox="0 0 131 21" fill="none" xmlns="http://www.w3.org/2000/svg">
<g clip-path="url(#clip0_30_8314)">
<path fill-rule="evenodd" clip-rule="evenodd" d="M119.895 1.67427C120.215 1.51427 120.515 1.32427 120.795 1.11427H130.125C129.905 2.22427 129.625 3.33427 129.295 4.42427C128.295 5.42427 127.165 6.35427 126.065 7.28427C125.215 10.5343 124.285 13.7143 123.465 16.9943C122.085 17.9943 120.805 18.9943 119.465 19.9943C118.065 19.9143 116.745 19.9943 115.245 19.9943C115.325 19.2543 115.645 18.4443 115.735 17.5843C115.305 17.7843 114.885 18.0243 114.495 18.3043C114.105 18.5543 113.715 18.7843 113.295 19.0143C111.695 19.9543 109.835 20.3343 107.995 20.0743C106.715 19.8843 105.565 19.1943 104.795 18.1543C103.025 19.5243 99.5445 20.7843 96.6645 19.8843C94.8245 19.3043 93.8345 17.6043 94.2545 15.1843C93.5645 15.2943 92.8745 15.3543 92.1845 15.3743C91.9545 15.9243 91.7545 16.4943 91.5845 17.0643C90.5845 17.7743 89.5845 18.6043 88.5845 19.4043C88.2845 19.6943 87.9445 19.9443 87.5845 20.1543C86.8445 20.2243 86.1045 20.2243 85.3645 20.1543C84.6245 20.2143 83.8845 20.2143 83.1445 20.1543C84.3445 15.6743 85.5645 10.6743 86.8945 6.01427C87.0045 5.35427 87.1845 4.71427 87.4245 4.09427C87.6745 3.79427 87.9645 3.52427 88.2845 3.30427C89.2045 2.54427 90.1745 1.90427 91.0345 1.11427H95.0345C96.3745 1.11427 97.7745 0.984273 98.9445 1.11427C99.3745 1.20427 99.7745 1.36427 100.145 1.60427C100.395 1.96427 100.655 2.33427 100.895 2.69427C101.785 2.12427 102.715 1.62427 103.685 1.19427C104.855 0.844273 106.065 0.694273 107.285 0.774273C108.845 0.834273 110.285 1.44427 110.825 2.69427C112.065 1.58427 113.615 0.884273 115.265 0.694273C116.865 0.494273 118.495 0.824273 119.895 1.63427M119.365 2.05427C118.395 1.46427 117.265 1.18427 116.125 1.23427C115.475 1.27427 114.825 1.40427 114.205 1.61427C113.005 1.85427 111.945 2.52427 111.205 3.49427C110.615 4.47427 110.405 5.63427 110.605 6.76427C110.975 7.60427 111.485 8.36427 112.125 9.02427C112.695 9.78427 113.385 10.4443 113.855 11.0943C114.045 11.3343 114.195 11.5943 114.305 11.8843C114.615 12.6143 114.275 13.4543 113.555 13.7643C113.365 13.8443 113.165 13.8843 112.965 13.8743C112.855 13.8743 112.825 13.7743 112.775 13.7643C112.725 13.7543 112.635 13.7643 112.545 13.7643C111.645 13.3443 112.015 12.4543 112.175 11.5043H108.785C108.455 12.3543 108.265 13.2643 108.225 14.1743C108.325 16.0143 110.095 16.8043 111.945 16.8143C113.285 16.8743 114.605 16.5243 115.745 15.8143C116.305 15.5143 116.815 15.1143 117.245 14.6443C118.025 13.6143 118.405 12.3243 118.305 11.0343C118.065 9.84427 117.415 8.78427 116.465 8.03427C115.775 7.45427 115.145 6.79427 114.585 6.08427C114.305 5.61427 114.225 5.06427 114.365 4.53427C114.645 4.11427 115.145 3.89427 115.645 3.97427C116.805 4.16427 116.435 5.73427 116.245 6.53427C117.245 6.61427 118.475 6.53427 119.405 6.53427C119.895 5.23427 120.515 3.02427 119.405 2.01427M102.545 2.31427C102.195 2.53427 101.885 2.79427 101.615 3.10427C101.385 3.30427 101.185 3.53427 101.015 3.78427C100.865 4.18427 100.755 4.60427 100.675 5.02427C99.9545 7.52427 99.2545 10.0243 98.6045 12.4343C98.4645 12.8543 98.3545 13.2843 98.2645 13.7143C98.0445 15.0743 98.9245 16.3643 100.265 16.6543C102.655 17.2343 105.425 16.6043 106.705 15.2143C107.085 14.8043 107.405 14.3343 107.635 13.8243C107.905 13.1743 108.065 12.2943 108.315 11.4543C108.795 9.88427 109.315 8.24427 109.675 6.67427C109.925 5.86427 110.125 5.03427 110.275 4.19427C110.385 3.56427 110.275 2.91427 109.975 2.35427C109.475 1.88427 108.865 1.56427 108.205 1.41427C107.345 1.24427 106.475 1.20427 105.605 1.29427C104.515 1.41427 103.465 1.75427 102.515 2.29427M121.255 1.69427C121.005 2.46427 120.815 3.26427 120.685 4.06427H122.835C121.835 8.13427 120.665 12.0043 119.675 16.0643C120.745 16.1243 121.805 16.1243 122.875 16.0643C124.025 12.0643 125.025 8.15427 126.145 4.13427C126.945 4.19427 127.755 4.19427 128.555 4.13427C128.755 3.32427 129.055 2.40427 129.195 1.65427C126.195 1.65427 123.785 1.60427 121.255 1.65427M97.9845 10.6543C98.4545 10.0943 98.7945 9.44427 98.9845 8.73427C99.4245 7.63427 99.7545 6.50427 99.9845 5.34427C100.145 4.80427 100.255 4.24427 100.295 3.67427C100.385 2.81427 99.8445 2.01427 99.0145 1.76427C98.4045 1.72427 97.7845 1.72427 97.1745 1.76427H91.6045C90.3045 6.58427 88.9645 11.3543 87.7645 16.1743C88.8545 16.2343 89.9445 16.2343 91.0345 16.1743C91.4645 14.7043 91.8545 13.1743 92.3145 11.7743C94.6645 11.9243 96.6645 11.9443 97.9945 10.7243" fill="#02033B"/>
<path fill-rule="evenodd" clip-rule="evenodd" d="M53.5551 1.23421H53.7051V1.45421H53.5551C53.5051 1.37421 53.5051 1.27421 53.5551 1.19421" fill="#02033B"/>
<path fill-rule="evenodd" clip-rule="evenodd" d="M102.015 13.7643C102.015 13.6343 101.955 13.5143 101.865 13.4243C101.955 12.4843 102.155 11.5643 102.465 10.6743C102.865 9.24428 103.245 7.87428 103.665 6.31428C103.775 5.59428 104.065 4.90428 104.495 4.31428C105.085 3.86428 106.495 3.81428 106.605 4.73428C106.575 5.09428 106.505 5.44428 106.375 5.78428C105.975 7.49428 105.535 9.17428 105.065 10.8643C104.875 11.5443 104.765 12.2443 104.535 12.8643C104.445 13.1043 104.335 13.3343 104.195 13.5443C103.585 14.0843 102.705 14.1543 102.015 13.7343" fill="#02033B"/>
<path fill-rule="evenodd" clip-rule="evenodd" d="M57.6951 13.5343C57.1451 13.9643 56.4051 14.0543 55.7751 13.7543C55.2951 13.1643 55.8951 11.8443 56.1151 11.0843C56.6551 9.21427 57.1151 7.50427 57.5851 5.66427C57.6551 5.30427 57.7551 4.95427 57.8851 4.61427C58.2051 4.03427 59.9551 3.70427 60.1051 4.61427C60.0851 5.02427 60.0151 5.42427 59.8851 5.81427C59.6551 6.90427 59.2351 8.12427 58.9751 9.16427C58.6551 10.6443 58.2351 12.1143 57.7051 13.5343" fill="#02033B"/>
<path fill-rule="evenodd" clip-rule="evenodd" d="M93.0645 9.09425C93.4845 7.49425 93.9245 5.90425 94.3745 4.31425C95.1245 4.12425 96.4345 4.06425 96.5645 4.80425C96.5745 5.07425 96.5545 5.33425 96.4845 5.59425C96.2645 6.71425 95.9044 7.80425 95.3944 8.83425C94.7144 9.30425 93.8345 9.40425 93.0645 9.09425Z" fill="#02033B"/>
<path fill-rule="evenodd" clip-rule="evenodd" d="M67.625 7.77429C67.925 6.58429 68.285 5.42429 68.715 4.27429C69.635 4.41429 71.005 3.84429 70.785 5.33429C70.685 6.00429 70.255 6.84429 70.105 7.43429C69.705 7.95429 68.345 7.82429 67.625 7.77429Z" fill="#02033B"/>
<path fill-rule="evenodd" clip-rule="evenodd" d="M87.385 1.11433H82.385C82.085 1.38433 81.745 1.65433 81.385 1.90433C81.095 2.18433 80.755 2.41433 80.385 2.58433C80.495 2.09433 80.585 1.60433 80.645 1.11433H75.715C75.445 1.39433 75.145 1.63433 74.815 1.83433C74.485 1.56433 74.115 1.35433 73.725 1.19433C73.065 1.11433 72.385 1.11433 71.725 1.19433H65.105C64.765 1.49433 64.415 1.76433 64.045 2.02433C62.515 0.464333 58.775 0.424333 56.565 1.27433C56.395 1.27433 56.565 1.04433 56.305 1.12433H51.445C50.685 1.67433 50.125 2.30433 49.265 2.77433C49.195 2.37433 49.265 1.58433 49.155 1.11433H44.155C43.855 1.39433 43.525 1.62433 43.155 1.79433C43.155 1.50433 43.305 1.37433 43.335 1.11433H38.915C38.365 1.57433 37.765 1.97433 37.125 2.31433C37.105 1.91433 37.075 1.51433 37.015 1.11433H34.815C34.095 1.03433 33.355 1.03433 32.635 1.11433C32.125 1.26433 31.795 1.99433 31.245 2.05433C31.185 1.73433 31.145 1.40433 31.125 1.07433C26.785 1.09433 20.575 0.904333 15.925 1.11433C15.475 1.06433 15.025 1.03433 14.575 1.04433C14.095 1.14433 13.515 2.04433 13.025 2.04433C12.945 1.71433 12.905 1.34433 12.805 1.04433H8.125C7.065 1.78433 6.125 2.67433 5.125 3.44433C4.745 3.76433 4.325 3.92433 4.125 4.27433C3.995 4.73433 3.905 5.20433 3.845 5.67433C3.545 6.75433 3.315 7.67433 3.055 8.67433C2.125 12.4743 0.925 16.4743 0.125 20.1243H4.305C4.995 19.5443 5.715 19.0143 6.485 18.5343C6.625 19.0243 6.605 19.5343 6.745 20.1243H9.745C10.075 20.1543 10.415 20.1543 10.745 20.1243C11.075 20.0443 11.205 19.6243 11.495 19.5543C11.705 19.6743 11.775 19.9343 11.915 20.1243C14.105 19.9743 16.655 20.1743 18.345 20.1243C18.915 20.1743 19.475 20.1743 20.045 20.1243C20.355 19.9643 20.645 19.7543 20.905 19.5243C21.165 19.2743 21.465 19.0843 21.805 18.9543C21.805 19.4043 21.665 19.8043 21.695 20.1243H25.045C25.235 20.1243 25.415 20.1243 25.605 20.1243C26.085 20.0643 26.605 19.5143 26.995 19.2543C27.345 18.9143 27.775 18.6543 28.245 18.5043C28.155 19.0543 27.985 19.5043 27.905 20.0843H29.855C30.565 20.1643 31.295 20.1643 32.005 20.0843C32.325 20.0143 32.735 19.5543 33.055 19.2843C34.125 18.4743 35.325 17.6743 36.235 16.9143C37.605 13.9143 39.095 10.8343 40.495 7.91433C40.695 7.49433 40.775 6.97433 41.165 6.67433C41.415 8.38433 41.635 10.0943 41.805 11.6743C41.925 12.2243 41.985 12.7743 41.995 13.3343C41.885 13.8943 41.735 14.4443 41.545 14.9843L40.185 20.0343H44.775C45.825 19.3143 46.715 18.4543 47.775 17.7743C48.455 19.2043 49.875 20.1343 51.465 20.1843C53.005 20.2943 54.545 19.9643 55.905 19.2443C56.465 18.8943 57.065 18.5943 57.675 18.3443C57.625 18.9443 57.475 19.4443 57.415 20.0343H61.705C62.215 19.6443 62.755 19.2943 63.315 18.9843C63.315 19.4243 63.145 19.6043 63.135 19.9843C65.215 20.0443 67.625 19.9843 69.905 19.9843C70.695 20.0643 71.485 20.0643 72.275 19.9843C72.645 19.8143 72.975 19.5843 73.275 19.3043C73.635 19.0543 73.885 18.7043 74.275 18.6343C74.485 19.0643 74.655 19.5143 74.765 19.9843H79.765C81.105 18.9343 82.375 17.8043 83.765 16.7843C83.095 13.9343 82.455 11.0643 81.845 8.16433C83.645 6.09433 85.425 3.72433 87.125 1.56433C87.205 1.46433 87.435 1.28433 87.345 1.11433M10.955 16.2043C10.555 13.4743 10.375 10.7543 9.955 8.07433C9.125 10.6743 8.465 13.5943 7.575 16.2043C6.675 16.2043 5.665 16.2543 4.825 16.2043C5.975 11.3043 7.285 6.61433 8.475 1.79433C8.495 1.73433 8.535 1.69433 8.595 1.67433H12.315C12.615 3.98433 12.835 6.37433 13.185 8.67433C13.955 6.40433 14.515 3.93433 15.295 1.67433C16.235 1.63433 17.185 1.66433 18.125 1.75433C16.805 6.67433 15.545 11.3843 14.125 16.2043H10.955ZM35.645 16.2043C34.605 16.2643 33.565 16.2643 32.525 16.2043C32.705 13.4343 33.015 10.8443 33.235 8.04433C32.835 8.67433 32.495 9.34433 32.235 10.0443C31.235 12.0443 30.365 14.1943 29.415 16.2543H26.215C26.295 12.2543 26.685 8.15433 26.855 4.25433H22.565C22.115 5.25433 21.865 6.49433 21.475 7.56433C22.595 7.62433 24.095 7.56433 25.385 7.56433C25.275 8.33433 24.925 9.17433 24.745 10.0143H20.875C20.455 11.1743 20.185 12.4943 19.825 13.7043C21.225 13.7043 22.735 13.6543 24.075 13.7043C23.815 14.5343 23.525 15.3343 23.245 16.1443H15.795C16.985 11.2443 18.285 6.45433 19.565 1.65433C23.065 1.59433 26.865 1.60433 30.565 1.65433C30.405 4.01433 30.195 6.43433 29.965 8.72433C30.245 8.54433 30.325 8.18433 30.455 7.90433C31.455 5.90433 32.385 3.71433 33.355 1.65433H36.555C36.435 4.10433 36.105 6.46433 35.985 8.84433C37.255 6.67433 38.325 4.11433 39.525 1.72433C40.385 1.72433 41.415 1.67433 42.455 1.72433C40.195 6.55433 37.925 11.3843 35.645 16.2043ZM50.395 9.43433C50.125 9.77433 49.885 10.1443 49.675 10.5243C49.515 11.0243 49.395 11.5243 49.295 12.0343C48.945 13.3643 48.495 14.8043 48.055 16.2843H44.855C45.155 14.3743 45.855 12.4543 46.285 10.5643C46.305 10.0943 46.255 9.62433 46.125 9.17433C45.805 6.67433 45.445 4.26433 45.125 1.75433C46.345 1.69433 47.125 1.75433 48.505 1.75433C48.645 3.46433 48.795 5.25433 48.885 6.95433C50.015 5.41433 51.035 3.44433 52.155 1.75433C53.105 1.75433 54.375 1.70433 55.435 1.75433C53.865 4.30433 52.045 6.75433 50.385 9.39433M61.185 13.7943C60.765 14.6543 60.115 15.3843 59.315 15.9043C57.535 16.9043 55.435 17.1443 53.475 16.5843C53.015 16.4143 52.015 15.8943 51.865 15.2643C51.545 13.9843 52.185 12.5743 52.455 11.3943C52.895 9.49433 53.455 7.39433 54.005 5.45433C54.155 4.71433 54.445 4.00433 54.875 3.37433C55.815 2.06433 57.315 1.25433 58.935 1.19433C61.205 0.984333 63.425 1.19433 63.785 3.03433C63.835 3.36433 63.835 3.70433 63.785 4.03433C63.645 4.88433 63.445 5.73433 63.185 6.55433C62.765 8.12433 62.325 9.82433 61.875 11.4443C61.625 12.3343 61.445 13.2343 61.195 13.8543M71.315 16.2643C70.125 16.2643 69.195 16.3243 67.855 16.2643C68.005 15.0943 68.475 13.5343 68.795 12.1543C68.895 11.7043 69.165 11.1543 69.055 10.8043C68.835 10.1643 67.645 10.4643 66.915 10.3943C66.235 12.2643 65.775 14.3943 65.175 16.3043C64.055 16.2543 62.885 16.3043 61.865 16.3043C62.385 13.8343 63.125 11.4443 63.745 9.03433C64.365 6.62433 64.935 4.19433 65.665 1.84433H71.015C72.015 1.84433 73.535 1.75433 74.135 2.18433C75.245 2.99433 74.545 4.57433 74.205 5.87433C74.065 6.49433 73.885 7.11433 73.675 7.71433C73.345 8.53433 72.445 8.80433 71.675 9.21433C72.245 9.51433 72.895 9.61433 72.835 10.5343C72.755 11.0443 72.625 11.5543 72.465 12.0443C72.105 13.3543 71.545 15.1643 71.255 16.3643M83.655 5.03433C82.835 6.03433 82.025 7.13433 81.215 8.19433C81.775 10.9343 82.375 13.4743 82.905 16.1943C81.385 16.2743 80.285 16.2643 79.105 16.1943C78.685 14.0643 78.285 11.9243 77.865 9.79433C77.115 11.7943 76.575 14.0543 75.945 16.1943H72.365C72.615 15.0043 72.925 13.8343 73.305 12.6743C73.675 11.4943 73.935 10.2843 74.305 9.09433C74.675 7.90433 75.045 6.69433 75.305 5.48433C75.565 4.27433 76.005 2.97433 76.365 1.83433C77.505 1.74433 78.645 1.74433 79.785 1.83433C79.385 3.47433 78.965 4.97433 78.585 6.53433C79.015 6.20433 79.385 5.81433 79.705 5.37433C80.765 4.22433 81.825 2.94433 82.905 1.79433C83.955 1.73433 85.015 1.73433 86.065 1.79433C85.345 2.94433 84.475 3.97433 83.655 5.03433Z" fill="#02033B"/>
</g>
<defs>
<clipPath id="clip0_30_8314">
<rect width="130" height="19.62" fill="white" transform="translate(0.125 0.674316)"/>
</clipPath>
</defs>
</svg>
