<svg width="124" height="47" viewBox="0 0 124 47" fill="none" xmlns="http://www.w3.org/2000/svg">
<g clip-path="url(#clip0_30_8331)">
<path fill-rule="evenodd" clip-rule="evenodd" d="M128.389 13.1301C128.469 10.6301 126.499 8.53005 123.999 8.45005H123.789C121.989 8.45005 120.099 9.45005 120.389 11.9501C120.569 13.5401 123.049 14.1101 124.389 14.5401C128.389 15.7901 129.969 17.3101 129.969 20.2701C129.969 23.2301 127.509 25.2701 123.119 25.2701C120.969 25.2701 118.579 24.8401 117.119 23.5201L116.609 19.2301H117.019C117.659 23.0501 119.309 24.5501 123.269 24.6501C125.799 24.7101 126.549 23.2701 126.539 21.4901C126.529 19.7101 124.609 18.9401 122.339 18.1901C119.089 17.1901 117.089 15.9101 117.089 12.8001C117.089 9.69005 119.839 7.68005 123.909 7.68005C125.589 7.73005 127.239 8.19005 128.709 9.02005V13.0901L128.389 13.1301Z" fill="#02033B"/>
<path fill-rule="evenodd" clip-rule="evenodd" d="M114.181 9.34C114.891 8.86 115.561 8.33 116.181 7.73C116.871 7.15 117.311 6.33 117.401 5.43C117.401 5.26 117.351 5.08 117.251 4.94C117.141 4.81 116.971 4.74 116.801 4.75C116.591 4.79 116.371 4.81 116.161 4.82C115.571 4.84 114.991 4.6 114.581 4.17C114.171 3.72 113.961 3.12 114.001 2.51C113.961 1.84 114.201 1.19 114.651 0.699996C115.131 0.219996 115.791 -0.0400043 116.471 -4.29479e-06C117.281 -0.0200043 118.061 0.319996 118.601 0.919996C119.141 1.53 119.441 2.31 119.471 3.12C119.441 4.75 118.771 6.3 117.601 7.43C116.671 8.36 115.611 9.15 114.451 9.77L114.181 9.34Z" fill="#02033B"/>
<path fill-rule="evenodd" clip-rule="evenodd" d="M77.1709 33.2101V38.7701C77.1709 40.4501 77.9209 40.9701 78.6509 40.9701C79.1209 40.9401 79.5709 40.8401 80.0009 40.6501L80.1109 41.0001C79.3009 41.5101 78.3709 41.7901 77.4109 41.8201C76.6209 41.8201 74.6709 41.5401 74.6709 39.6301V33.2101H73.1309V32.5901H74.9409L76.6509 29.9301H77.1709V32.5901H79.9109V33.2201H77.1709V33.2101Z" fill="#02033B"/>
<path fill-rule="evenodd" clip-rule="evenodd" d="M71.6608 35.23C71.7108 33.88 70.6608 32.75 69.3108 32.7H69.2908H69.1708C68.2708 32.59 67.4408 33.23 67.3308 34.14C67.3308 34.14 67.3308 34.15 67.3308 34.16C67.3108 34.3 67.3108 34.45 67.3308 34.59C67.4308 35.45 68.7808 35.76 69.5108 35.99C71.6708 36.67 72.5108 37.49 72.5108 39.09C72.5108 40.69 71.1808 41.81 68.8108 41.81C67.6508 41.87 66.5108 41.51 65.5808 40.81L65.3008 38.5H65.5208C65.8708 40.56 66.7608 41.37 68.9008 41.43C69.7208 41.58 70.5008 41.04 70.6608 40.22C70.6808 40.05 70.6808 39.89 70.6608 39.72C70.6608 38.72 69.6608 38.35 68.3908 37.94C66.6308 37.38 65.5508 36.7 65.5508 35.03C65.5508 33.36 67.0408 32.26 69.2308 32.26C70.1408 32.29 71.0308 32.54 71.8308 32.98V35.18L71.6608 35.23Z" fill="#02033B"/>
<path fill-rule="evenodd" clip-rule="evenodd" d="M110.45 8C109.11 8 107.45 8.74 105.73 10.91V8L99.9305 8.85V9.33C99.9305 9.33 101.21 9.18 101.73 9.14V22.94C101.73 23.51 101.64 24.24 100.67 24.24H99.7305V24.88H108V24.25H107C106.37 24.33 105.8 23.88 105.72 23.25C105.7 23.14 105.7 23.04 105.72 22.93V13.29C105.94 11.17 107.27 9.95 107.88 9.94C109.05 9.94 109.01 10.77 110.05 11.26C110.92 11.69 111.97 11.34 112.4 10.47C112.5 10.26 112.56 10.03 112.57 9.79C112.57 8.79 111.89 8.03 110.44 8.03" fill="#02033B"/>
<path fill-rule="evenodd" clip-rule="evenodd" d="M32.7 8.62C37.26 8.62 37.07 14.62 37.07 14.68C37.11 15.06 36.83 15.41 36.45 15.45C36.45 15.45 36.44 15.45 36.43 15.45C36.37 15.45 36.32 15.45 36.26 15.45H29.46C29.05 15.47 28.69 15.15 28.66 14.74V14.59C28.74 12.59 29.27 8.59 32.66 8.59M29.39 16.22H40.56C40.67 15.22 40.62 14.21 40.41 13.22C40.21 12.17 39.76 11.17 39.1 10.33C38 9 36.08 8 32.85 8C27 8 24 11.73 24 16.81C24 21.89 26.69 25.42 32.93 25.42C37.07 25.42 39.24 23.48 40.35 20.74L39.9 20.52C38.44 23.42 36.64 24.52 33.77 24.52C29.55 24.52 28.67 20.52 28.63 17.16C28.63 17.13 28.63 17.09 28.63 17.06C28.6 16.64 28.91 16.26 29.34 16.23H29.45" fill="#02033B"/>
<path fill-rule="evenodd" clip-rule="evenodd" d="M59.7495 32.59C62.2795 32.59 62.1895 35.83 62.1895 35.84C62.1995 36.06 62.0395 36.24 61.8295 36.27H57.9995C57.7695 36.28 57.5695 36.1 57.5495 35.87V35.8C57.5495 34.69 57.8795 32.61 59.7795 32.6M57.9695 36.82H64.1395C64.1795 36.27 64.1395 35.72 63.9995 35.18C63.8895 34.6 63.6495 34.05 63.2795 33.58C62.3995 32.63 61.1195 32.13 59.8295 32.25C57.3195 32.04 55.1195 33.91 54.9095 36.42C54.9095 36.42 54.9095 36.42 54.9095 36.43C54.8895 36.67 54.8895 36.92 54.9095 37.16C54.9095 40.09 56.3895 41.93 59.8495 41.93C61.6695 42.11 63.3795 41.03 63.9995 39.31L63.6795 39.19C63.1495 40.59 61.7795 41.49 60.2795 41.41C57.9495 41.41 57.5295 39.21 57.5095 37.33C57.4895 37.09 57.6695 36.88 57.9095 36.86" fill="#02033B"/>
<path fill-rule="evenodd" clip-rule="evenodd" d="M90.5601 8.61C95.1101 8.61 94.9301 14.66 94.9301 14.68C94.9601 15.07 94.6701 15.41 94.2801 15.45C94.2201 15.45 94.1701 15.45 94.1101 15.45H87.3101C86.8901 15.47 86.5401 15.15 86.5101 14.73V14.63C86.6001 12.63 87.1301 8.63 90.5101 8.63M87.2301 16.26H98.4101C98.5201 15.26 98.4601 14.25 98.2501 13.26C98.0801 12.22 97.6501 11.23 97.0001 10.39C95.8401 9 93.9401 8 90.7101 8C84.8701 8 81.8301 11.78 81.8301 16.86C81.8301 21.94 84.5101 25.47 90.7501 25.47C94.9001 25.47 97.0701 23.53 98.1801 20.79L97.7401 20.57C96.2701 23.47 94.4701 24.57 91.6001 24.57C87.3801 24.57 86.5001 20.57 86.4601 17.21C86.4601 17.18 86.4601 17.14 86.4601 17.11C86.4201 16.69 86.7301 16.32 87.1501 16.28H87.1701H87.2801" fill="#02033B"/>
<path fill-rule="evenodd" clip-rule="evenodd" d="M9.42 12.1201H7.72C7.23 12.1801 6.78 11.8201 6.72 11.3301C6.72 11.3301 6.72 11.3301 6.72 11.3201V2.21005C7.42 2.10005 8.14 2.06005 8.85 2.08005C11.51 2.08005 14.56 2.93005 14.56 7.50005C14.56 10.9001 12.76 12.1201 9.4 12.1201M13.56 12.7001C16.7 12.2101 18.93 10.4501 18.91 7.18005C18.91 4.08005 17.19 1.43005 10.91 1.43005H0V2.00005H1.19C1.81 1.97005 2.34 2.44005 2.37 3.06005C2.37 3.14005 2.37 3.21005 2.37 3.29005V23.0001C2.47 23.6601 2.02 24.2701 1.37 24.3801H0V24.9201H9.22V24.3801H8.11C7.44 24.4601 6.83 23.9901 6.74 23.3201C6.72 23.2101 6.72 23.0901 6.74 22.9801V13.9801C6.74 13.9801 6.74 13.9501 6.74 13.9301C6.74 13.3501 6.97 12.9301 7.74 12.9301H9C11 12.9301 14.46 14.2301 15.48 19.7401C16.85 27.1901 23.28 28.8001 29.6 28.5301V28.1901C16.91 27.3001 23.43 13.5901 13.6 12.6901" fill="#02033B"/>
<path fill-rule="evenodd" clip-rule="evenodd" d="M42.0605 31.42C42.7105 31.5 43.3105 31.04 43.3905 30.39C43.3905 30.39 43.3905 30.38 43.3905 30.37V30.26C43.4205 29.59 42.9005 29.03 42.2305 29C42.2205 29 42.2105 29 42.2005 29H42.0605C41.3905 28.95 40.7905 29.45 40.7305 30.12V30.22C40.7305 30.88 41.2605 31.43 41.9205 31.43C41.9505 31.43 41.9705 31.43 42.0005 31.43H42.1105" fill="#02033B"/>
<path fill-rule="evenodd" clip-rule="evenodd" d="M43.7306 41.21C43.4706 41.2 43.2606 40.98 43.2706 40.71C43.2706 40.71 43.2706 40.71 43.2706 40.7V32.64L39.7406 33.24L40.0906 33.63L40.7006 33.57V40.68C40.7306 40.94 40.5406 41.18 40.2806 41.21H39.6406V41.64H44.5606V41.21H43.7406H43.7306Z" fill="#02033B"/>
<path fill-rule="evenodd" clip-rule="evenodd" d="M53.6902 20.87C53.6902 23.15 51.2802 24.01 50.0902 23.87C48.0002 23.65 47.1702 22 47.1702 20.1C47.0102 18.63 47.9602 17.27 49.4002 16.93C50.8302 16.38 52.8602 15.75 53.6802 15.29V20.87H53.6902ZM60.0102 23.67C59.6602 24 59.2102 24.21 58.7302 24.25C58.2602 24.29 57.8402 23.96 57.7802 23.49C57.7302 22.61 57.7102 12.76 57.7102 12.76C57.7102 10.76 56.4402 7.98999 50.8102 7.98999C46.5402 7.98999 43.6602 9.98999 43.5302 11.92C43.3902 12.8 44.0002 13.63 44.8802 13.77C44.9902 13.78 45.0902 13.78 45.2002 13.77H45.4402C45.5202 13.76 45.5902 13.74 45.6702 13.71L45.8302 13.66C46.4602 13.32 46.8902 12.71 47.0102 12C47.3902 9.67999 48.2302 8.46999 50.7002 8.54999C53.5902 8.62999 53.7002 10.19 53.7002 12.83V13.19C53.7002 13.5 53.5102 14.63 51.5702 15.42C49.8302 15.81 48.0802 16.12 46.3102 16.33C44.2402 16.65 42.7402 18.49 42.8602 20.58C42.8602 23.12 44.7802 25.23 48.2602 25.33C51.0202 25.41 52.5902 23.91 53.7002 23.18C54.0202 24.31 54.9702 25.16 56.1302 25.34C57.6302 25.55 59.1502 25.09 60.2802 24.09L60.0102 23.67Z" fill="#02033B"/>
<path fill-rule="evenodd" clip-rule="evenodd" d="M74.4104 19.92C74.4604 20.53 74.3704 21.14 74.1404 21.7C73.4304 23.35 71.9104 23.82 70.1404 23.82C66.8204 23.82 65.9004 20.26 65.9004 16.37C65.9004 12.05 66.9004 9.05001 70.4504 9.05001C72.0104 8.98001 73.4704 9.85001 74.1404 11.27C74.4004 11.96 74.5004 12.69 74.4404 13.42L74.4104 19.92ZM79.8304 24.17C78.7504 24.17 78.4104 23.64 78.4104 22.74V0.140015L71.7504 0.860015V1.47001L74.4104 1.31001V10.31C73.5304 8.93001 72.0404 8.05001 70.4104 7.96001C67.9204 7.79001 65.4604 8.64001 63.6104 10.32C61.8304 12.04 60.8804 14.45 61.0004 16.92C61.0004 21.81 63.5804 25.23 68.5804 25.23C70.7304 25.23 72.8104 24.44 74.4104 23V24.8H80.4104V24.17H79.8304Z" fill="#02033B"/>
<path fill-rule="evenodd" clip-rule="evenodd" d="M35.0006 38.8801C35.1406 39.9801 34.3706 40.9801 33.2806 41.1201C33.0406 41.1501 32.8006 41.1401 32.5706 41.0901C30.6906 41.0901 30.1706 39.0901 30.1706 36.8701C30.1706 34.4301 30.7306 32.7301 32.7406 32.7301C33.6406 32.6701 34.4906 33.1801 34.8706 34.0001C35.0006 34.3801 35.0506 34.8001 35.0006 35.2001V38.8801ZM38.0706 41.2901C37.4606 41.2901 37.2606 40.9901 37.2606 40.4801V27.6801L33.4906 28.0801V28.4301L35.0006 28.3401V33.4101C34.5006 32.6301 33.6606 32.1301 32.7406 32.0801C31.3306 31.9901 29.9406 32.4701 28.8906 33.4201C27.8706 34.4001 27.3306 35.7701 27.4006 37.1801C27.4006 39.9501 28.8706 41.8801 31.7006 41.8801C32.9206 41.8801 34.1006 41.4201 35.0006 40.5901V41.5901H38.3806V41.2301H38.0706V41.2901Z" fill="#02033B"/>
<path fill-rule="evenodd" clip-rule="evenodd" d="M49.5995 38C48.4895 38 47.8595 37.1 47.7895 35.5C47.7195 33.9 48.6295 33.05 49.5195 33.05C50.3295 33.05 51.2495 33.6 51.2195 35.5C51.2195 37.04 50.7295 37.99 49.5795 38M49.6995 41.68C51.5595 41.68 52.5795 42.1 52.5195 43.47C52.5295 44.74 51.5095 45.78 50.2395 45.8C50.1395 45.8 50.0495 45.8 49.9495 45.8C48.2695 45.8 47.2395 44.91 47.1995 43.4C47.1795 42.91 47.3995 42.43 47.7995 42.14C48.3595 41.76 49.0495 41.61 49.7195 41.7M52.7195 32.24C53.3595 32.24 53.3395 32.7 53.9095 32.97C54.3895 33.19 54.9595 33 55.2095 32.54C55.2695 32.42 55.2995 32.29 55.3095 32.15C55.3095 31.59 54.9295 31.15 54.1295 31.15C53.0795 31.25 52.1295 31.83 51.5595 32.72C50.9595 32.5 50.3295 32.39 49.6895 32.38C46.7495 32.38 45.5395 33.55 45.5595 35.48C45.5495 36.87 46.5395 38.06 47.8995 38.31C46.7995 38.46 45.8995 39.1 45.8995 39.86C45.8995 40.95 47.3395 41.45 48.1695 41.51C47.3695 41.59 45.6095 41.63 45.4895 43.51C45.3695 45.39 47.3595 46.42 49.5795 46.44C53.2195 46.44 54.6395 44.84 54.6395 42.74C54.6395 40.64 52.8895 39.99 50.9095 39.99H49.1395C47.8295 39.99 47.4295 39.55 47.4295 39.23C47.4295 38.7 48.0195 38.48 48.2695 38.4C48.5195 38.32 49.2695 38.46 49.4895 38.46C51.2795 38.46 53.4895 37.73 53.4895 35.46C53.4795 35.03 53.3795 34.6 53.1995 34.21L53.1095 34.04C53.0395 33.93 52.9595 33.83 52.8795 33.73L52.7695 33.61L52.4195 33.27C52.2495 33.15 52.0795 33.03 51.8995 32.92C52.0595 32.58 52.3595 32.33 52.7195 32.23" fill="#02033B"/>
</g>
<defs>
<clipPath id="clip0_30_8331">
<rect width="130" height="46.52" fill="white"/>
</clipPath>
</defs>
</svg>
