<svg width="130" height="47" viewBox="0 0 130 47" fill="none" xmlns="http://www.w3.org/2000/svg">
<g clip-path="url(#clip0_30_8331)">
<path fill-rule="evenodd" clip-rule="evenodd" d="M128.264 13.1457C128.344 10.6457 126.374 8.54568 123.874 8.46568H123.664C121.864 8.46568 119.974 9.46568 120.264 11.9657C120.444 13.5557 122.924 14.1257 124.264 14.5557C128.264 15.8057 129.844 17.3257 129.844 20.2857C129.844 23.2457 127.384 25.2857 122.994 25.2857C120.844 25.2857 118.454 24.8557 116.994 23.5357L116.484 19.2457H116.894C117.534 23.0657 119.184 24.5657 123.144 24.6657C125.674 24.7257 126.424 23.2857 126.414 21.5057C126.404 19.7257 124.484 18.9557 122.214 18.2057C118.964 17.2057 116.964 15.9257 116.964 12.8157C116.964 9.70568 119.714 7.69568 123.784 7.69568C125.464 7.74568 127.114 8.20568 128.584 9.03568V13.1057L128.264 13.1457Z" fill="#02033B"/>
<path fill-rule="evenodd" clip-rule="evenodd" d="M114.056 9.35562C114.766 8.87562 115.436 8.34562 116.056 7.74562C116.746 7.16562 117.186 6.34562 117.276 5.44562C117.276 5.27562 117.226 5.09562 117.126 4.95562C117.016 4.82562 116.846 4.75562 116.676 4.76562C116.466 4.80562 116.246 4.82562 116.036 4.83562C115.446 4.85562 114.866 4.61562 114.456 4.18562C114.046 3.73562 113.836 3.13562 113.876 2.52562C113.836 1.85562 114.076 1.20562 114.526 0.715621C115.006 0.235621 115.666 -0.0243793 116.346 0.0156207C117.156 -0.00437929 117.936 0.335621 118.476 0.935621C119.016 1.54562 119.316 2.32562 119.346 3.13562C119.316 4.76562 118.646 6.31562 117.476 7.44562C116.546 8.37562 115.486 9.16562 114.326 9.78562L114.056 9.35562Z" fill="#02033B"/>
<path fill-rule="evenodd" clip-rule="evenodd" d="M77.0459 33.2257V38.7857C77.0459 40.4657 77.7959 40.9857 78.5259 40.9857C78.9959 40.9557 79.4459 40.8557 79.8759 40.6657L79.9859 41.0157C79.1759 41.5257 78.2459 41.8057 77.2859 41.8357C76.4959 41.8357 74.5459 41.5557 74.5459 39.6457V33.2257H73.0059V32.6057H74.8159L76.5259 29.9457H77.0459V32.6057H79.7859V33.2357H77.0459V33.2257Z" fill="#02033B"/>
<path fill-rule="evenodd" clip-rule="evenodd" d="M71.5358 35.2456C71.5858 33.8956 70.5358 32.7656 69.1858 32.7156H69.1658H69.0458C68.1458 32.6056 67.3158 33.2456 67.2058 34.1556C67.2058 34.1556 67.2058 34.1656 67.2058 34.1756C67.1858 34.3156 67.1858 34.4656 67.2058 34.6056C67.3058 35.4656 68.6558 35.7756 69.3858 36.0056C71.5458 36.6856 72.3858 37.5056 72.3858 39.1056C72.3858 40.7056 71.0558 41.8256 68.6858 41.8256C67.5258 41.8856 66.3858 41.5256 65.4558 40.8256L65.1758 38.5156H65.3958C65.7458 40.5756 66.6358 41.3856 68.7758 41.4456C69.5958 41.5956 70.3758 41.0556 70.5358 40.2356C70.5558 40.0656 70.5558 39.9056 70.5358 39.7356C70.5358 38.7356 69.5358 38.3656 68.2658 37.9556C66.5058 37.3956 65.4258 36.7156 65.4258 35.0456C65.4258 33.3756 66.9158 32.2756 69.1058 32.2756C70.0158 32.3056 70.9058 32.5556 71.7058 32.9956V35.1956L71.5358 35.2456Z" fill="#02033B"/>
<path fill-rule="evenodd" clip-rule="evenodd" d="M110.325 8.01562C108.985 8.01562 107.325 8.75562 105.605 10.9256V8.01562L99.8055 8.86563V9.34562C99.8055 9.34562 101.085 9.19563 101.605 9.15563V22.9556C101.605 23.5256 101.515 24.2556 100.545 24.2556H99.6055V24.8956H107.875V24.2656H106.875C106.245 24.3456 105.675 23.8956 105.595 23.2656C105.575 23.1556 105.575 23.0556 105.595 22.9456V13.3056C105.815 11.1856 107.145 9.96562 107.755 9.95562C108.925 9.95562 108.885 10.7856 109.925 11.2756C110.795 11.7056 111.845 11.3556 112.275 10.4856C112.375 10.2756 112.435 10.0456 112.445 9.80562C112.445 8.80562 111.765 8.04562 110.315 8.04562" fill="#02033B"/>
<path fill-rule="evenodd" clip-rule="evenodd" d="M32.575 8.63562C37.135 8.63562 36.945 14.6356 36.945 14.6956C36.985 15.0756 36.705 15.4256 36.325 15.4656C36.325 15.4656 36.315 15.4656 36.305 15.4656C36.245 15.4656 36.195 15.4656 36.135 15.4656H29.335C28.925 15.4856 28.565 15.1656 28.535 14.7556V14.6056C28.615 12.6056 29.145 8.60563 32.535 8.60563M29.265 16.2356H40.435C40.545 15.2356 40.495 14.2256 40.285 13.2356C40.085 12.1856 39.635 11.1856 38.975 10.3456C37.875 9.01562 35.955 8.01562 32.725 8.01562C26.875 8.01562 23.875 11.7456 23.875 16.8256C23.875 21.9056 26.565 25.4356 32.805 25.4356C36.945 25.4356 39.115 23.4956 40.225 20.7556L39.775 20.5356C38.315 23.4356 36.515 24.5356 33.645 24.5356C29.425 24.5356 28.545 20.5356 28.505 17.1756C28.505 17.1456 28.505 17.1056 28.505 17.0756C28.475 16.6556 28.785 16.2756 29.215 16.2456H29.325" fill="#02033B"/>
<path fill-rule="evenodd" clip-rule="evenodd" d="M59.6245 32.6056C62.1545 32.6056 62.0645 35.8456 62.0645 35.8556C62.0745 36.0756 61.9145 36.2556 61.7045 36.2856H57.8745C57.6445 36.2956 57.4445 36.1156 57.4245 35.8856V35.8156C57.4245 34.7056 57.7545 32.6256 59.6545 32.6156M57.8445 36.8356H64.0145C64.0545 36.2856 64.0145 35.7356 63.8745 35.1956C63.7645 34.6156 63.5245 34.0656 63.1545 33.5956C62.2745 32.6456 60.9945 32.1456 59.7045 32.2656C57.1945 32.0556 54.9945 33.9256 54.7845 36.4356C54.7845 36.4356 54.7845 36.4356 54.7845 36.4456C54.7645 36.6856 54.7645 36.9356 54.7845 37.1756C54.7845 40.1056 56.2645 41.9456 59.7245 41.9456C61.5445 42.1256 63.2545 41.0456 63.8745 39.3256L63.5545 39.2056C63.0245 40.6056 61.6545 41.5056 60.1545 41.4256C57.8245 41.4256 57.4045 39.2256 57.3845 37.3456C57.3645 37.1056 57.5445 36.8956 57.7845 36.8756" fill="#02033B"/>
<path fill-rule="evenodd" clip-rule="evenodd" d="M90.4351 8.62562C94.9851 8.62562 94.8051 14.6756 94.8051 14.6956C94.8351 15.0856 94.5451 15.4256 94.1551 15.4656C94.0951 15.4656 94.0451 15.4656 93.9851 15.4656H87.1851C86.7651 15.4856 86.4151 15.1656 86.3851 14.7456V14.6456C86.4751 12.6456 87.0051 8.64563 90.3851 8.64563M87.1051 16.2756H98.2851C98.3951 15.2756 98.3351 14.2656 98.1251 13.2756C97.9551 12.2356 97.5251 11.2456 96.8751 10.4056C95.7151 9.01563 93.8151 8.01562 90.5851 8.01562C84.7451 8.01562 81.7051 11.7956 81.7051 16.8756C81.7051 21.9556 84.3851 25.4856 90.6251 25.4856C94.7751 25.4856 96.9451 23.5456 98.0551 20.8056L97.6151 20.5856C96.1451 23.4856 94.3451 24.5856 91.4751 24.5856C87.2551 24.5856 86.3751 20.5856 86.3351 17.2256C86.3351 17.1956 86.3351 17.1556 86.3351 17.1256C86.2951 16.7056 86.6051 16.3356 87.0251 16.2956H87.0451H87.1551" fill="#02033B"/>
<path fill-rule="evenodd" clip-rule="evenodd" d="M9.295 12.1357H7.595C7.105 12.1957 6.655 11.8357 6.595 11.3457C6.595 11.3457 6.595 11.3457 6.595 11.3357V2.22568C7.295 2.11568 8.015 2.07568 8.725 2.09568C11.385 2.09568 14.435 2.94568 14.435 7.51568C14.435 10.9157 12.635 12.1357 9.275 12.1357M13.435 12.7157C16.575 12.2257 18.805 10.4657 18.785 7.19568C18.785 4.09568 17.065 1.44568 10.785 1.44568H-0.125V2.01568H1.065C1.685 1.98568 2.215 2.45568 2.245 3.07568C2.245 3.15568 2.245 3.22568 2.245 3.30568V23.0157C2.345 23.6757 1.895 24.2857 1.245 24.3957H-0.125V24.9357H9.095V24.3957H7.985C7.315 24.4757 6.705 24.0057 6.615 23.3357C6.595 23.2257 6.595 23.1057 6.615 22.9957V13.9957C6.615 13.9957 6.615 13.9657 6.615 13.9457C6.615 13.3657 6.845 12.9457 7.615 12.9457H8.875C10.875 12.9457 14.335 14.2457 15.355 19.7557C16.725 27.2057 23.155 28.8157 29.475 28.5457V28.2057C16.785 27.3157 23.305 13.6057 13.475 12.7057" fill="#02033B"/>
<path fill-rule="evenodd" clip-rule="evenodd" d="M41.9355 31.4357C42.5855 31.5157 43.1855 31.0557 43.2655 30.4057C43.2655 30.4057 43.2655 30.3957 43.2655 30.3857V30.2757C43.2955 29.6057 42.7755 29.0457 42.1055 29.0157C42.0955 29.0157 42.0855 29.0157 42.0755 29.0157H41.9355C41.2655 28.9657 40.6655 29.4657 40.6055 30.1357V30.2357C40.6055 30.8957 41.1355 31.4457 41.7955 31.4457C41.8255 31.4457 41.8455 31.4457 41.8755 31.4457H41.9855" fill="#02033B"/>
<path fill-rule="evenodd" clip-rule="evenodd" d="M43.6056 41.2256C43.3456 41.2156 43.1356 40.9956 43.1456 40.7256C43.1456 40.7256 43.1456 40.7256 43.1456 40.7156V32.6556L39.6156 33.2556L39.9656 33.6456L40.5756 33.5856V40.6956C40.6056 40.9556 40.4156 41.1956 40.1556 41.2256H39.5156V41.6556H44.4356V41.2256H43.6156H43.6056Z" fill="#02033B"/>
<path fill-rule="evenodd" clip-rule="evenodd" d="M53.5652 20.8856C53.5652 23.1656 51.1552 24.0256 49.9652 23.8856C47.8752 23.6656 47.0452 22.0156 47.0452 20.1156C46.8852 18.6456 47.8352 17.2856 49.2752 16.9456C50.7052 16.3956 52.7352 15.7656 53.5552 15.3056V20.8856H53.5652ZM59.8852 23.6856C59.5352 24.0156 59.0852 24.2256 58.6052 24.2656C58.1352 24.3056 57.7152 23.9756 57.6552 23.5056C57.6052 22.6256 57.5852 12.7756 57.5852 12.7756C57.5852 10.7756 56.3152 8.00562 50.6852 8.00562C46.4152 8.00562 43.5352 10.0056 43.4052 11.9356C43.2652 12.8156 43.8752 13.6456 44.7552 13.7856C44.8652 13.7956 44.9652 13.7956 45.0752 13.7856H45.3152C45.3952 13.7756 45.4652 13.7556 45.5452 13.7256L45.7052 13.6756C46.3352 13.3356 46.7652 12.7256 46.8852 12.0156C47.2652 9.69562 48.1052 8.48562 50.5752 8.56562C53.4652 8.64562 53.5752 10.2056 53.5752 12.8456V13.2056C53.5752 13.5156 53.3852 14.6456 51.4452 15.4356C49.7052 15.8256 47.9552 16.1356 46.1852 16.3456C44.1152 16.6656 42.6152 18.5056 42.7352 20.5956C42.7352 23.1356 44.6552 25.2456 48.1352 25.3456C50.8952 25.4256 52.4652 23.9256 53.5752 23.1956C53.8952 24.3256 54.8452 25.1756 56.0052 25.3556C57.5052 25.5656 59.0252 25.1056 60.1552 24.1056L59.8852 23.6856Z" fill="#02033B"/>
<path fill-rule="evenodd" clip-rule="evenodd" d="M74.2854 19.9356C74.3354 20.5456 74.2454 21.1556 74.0154 21.7156C73.3054 23.3656 71.7854 23.8356 70.0154 23.8356C66.6954 23.8356 65.7754 20.2756 65.7754 16.3856C65.7754 12.0656 66.7754 9.06564 70.3254 9.06564C71.8854 8.99564 73.3454 9.86564 74.0154 11.2856C74.2754 11.9756 74.3754 12.7056 74.3154 13.4356L74.2854 19.9356ZM79.7054 24.1856C78.6254 24.1856 78.2854 23.6556 78.2854 22.7556V0.15564L71.6254 0.87564V1.48564L74.2854 1.32564V10.3256C73.4054 8.94564 71.9154 8.06564 70.2854 7.97564C67.7954 7.80564 65.3354 8.65564 63.4854 10.3356C61.7054 12.0556 60.7554 14.4656 60.8754 16.9356C60.8754 21.8256 63.4554 25.2456 68.4554 25.2456C70.6054 25.2456 72.6854 24.4556 74.2854 23.0156V24.8156H80.2854V24.1856H79.7054Z" fill="#02033B"/>
<path fill-rule="evenodd" clip-rule="evenodd" d="M34.8756 38.8957C35.0156 39.9957 34.2456 40.9957 33.1556 41.1357C32.9156 41.1657 32.6756 41.1557 32.4456 41.1057C30.5656 41.1057 30.0456 39.1057 30.0456 36.8857C30.0456 34.4457 30.6056 32.7457 32.6156 32.7457C33.5156 32.6857 34.3656 33.1957 34.7456 34.0157C34.8756 34.3957 34.9256 34.8157 34.8756 35.2157V38.8957ZM37.9456 41.3057C37.3356 41.3057 37.1356 41.0057 37.1356 40.4957V27.6957L33.3656 28.0957V28.4457L34.8756 28.3557V33.4257C34.3756 32.6457 33.5356 32.1457 32.6156 32.0957C31.2056 32.0057 29.8156 32.4857 28.7656 33.4357C27.7456 34.4157 27.2056 35.7857 27.2756 37.1957C27.2756 39.9657 28.7456 41.8957 31.5756 41.8957C32.7956 41.8957 33.9756 41.4357 34.8756 40.6057V41.6057H38.2556V41.2457H37.9456V41.3057Z" fill="#02033B"/>
<path fill-rule="evenodd" clip-rule="evenodd" d="M49.4745 38.0156C48.3645 38.0156 47.7345 37.1156 47.6645 35.5156C47.5945 33.9156 48.5045 33.0656 49.3945 33.0656C50.2045 33.0656 51.1245 33.6156 51.0945 35.5156C51.0945 37.0556 50.6045 38.0056 49.4545 38.0156M49.5745 41.6957C51.4345 41.6957 52.4545 42.1157 52.3945 43.4857C52.4045 44.7557 51.3845 45.7956 50.1145 45.8156C50.0145 45.8156 49.9245 45.8156 49.8245 45.8156C48.1445 45.8156 47.1145 44.9257 47.0745 43.4157C47.0545 42.9257 47.2745 42.4456 47.6745 42.1556C48.2345 41.7756 48.9245 41.6257 49.5945 41.7157M52.5945 32.2557C53.2345 32.2557 53.2145 32.7157 53.7845 32.9857C54.2645 33.2057 54.8345 33.0157 55.0845 32.5557C55.1445 32.4357 55.1745 32.3057 55.1845 32.1657C55.1845 31.6057 54.8045 31.1656 54.0045 31.1656C52.9545 31.2656 52.0045 31.8457 51.4345 32.7357C50.8345 32.5157 50.2045 32.4057 49.5645 32.3957C46.6245 32.3957 45.4145 33.5656 45.4345 35.4956C45.4245 36.8856 46.4145 38.0757 47.7745 38.3257C46.6745 38.4757 45.7745 39.1157 45.7745 39.8757C45.7745 40.9657 47.2145 41.4656 48.0445 41.5256C47.2445 41.6056 45.4845 41.6456 45.3645 43.5256C45.2445 45.4056 47.2345 46.4356 49.4545 46.4556C53.0945 46.4556 54.5145 44.8557 54.5145 42.7557C54.5145 40.6557 52.7645 40.0057 50.7845 40.0057H49.0145C47.7045 40.0057 47.3045 39.5656 47.3045 39.2456C47.3045 38.7156 47.8945 38.4957 48.1445 38.4157C48.3945 38.3357 49.1445 38.4756 49.3645 38.4756C51.1545 38.4756 53.3645 37.7456 53.3645 35.4756C53.3545 35.0456 53.2545 34.6156 53.0745 34.2256L52.9845 34.0557C52.9145 33.9457 52.8345 33.8456 52.7545 33.7456L52.6445 33.6257L52.2945 33.2857C52.1245 33.1657 51.9545 33.0456 51.7745 32.9356C51.9345 32.5956 52.2345 32.3456 52.5945 32.2456" fill="#02033B"/>
</g>
<defs>
<clipPath id="clip0_30_8331">
<rect width="130" height="46.52" fill="white" transform="translate(-0.125 0.015625)"/>
</clipPath>
</defs>
</svg>
