<svg width="36" height="36" viewBox="0 0 36 36" fill="none" xmlns="http://www.w3.org/2000/svg">
<path d="M32.14 0H3.86C2.83626 0 1.85446 0.406677 1.13057 1.13057C0.406677 1.85446 0 2.83626 0 3.86L0 32.14C0 33.1637 0.406677 34.1455 1.13057 34.8694C1.85446 35.5933 2.83626 36 3.86 36H32.14C33.1637 36 34.1455 35.5933 34.8694 34.8694C35.5933 34.1455 36 33.1637 36 32.14V3.86C36 2.83626 35.5933 1.85446 34.8694 1.13057C34.1455 0.406677 33.1637 0 32.14 0V0ZM28.21 12.76V13.44C28.2245 15.3962 27.8534 17.3361 27.1178 19.1489C26.3823 20.9616 25.2967 22.6117 23.9232 24.0047C22.5497 25.3977 20.9151 26.5064 19.1129 27.2674C17.3107 28.0285 15.3762 28.4269 13.42 28.44C13.3504 28.45 13.2796 28.45 13.21 28.44C10.3425 28.4476 7.53362 27.6282 5.12 26.08C5.54159 26.1282 5.96566 26.1516 6.39 26.15C8.7854 26.1652 11.1153 25.3686 13 23.89C11.8868 23.8862 10.8035 23.53 9.90526 22.8725C9.00703 22.215 8.34007 21.2899 8 20.23C8.78802 20.3672 9.59634 20.3331 10.37 20.13C9.19123 19.8827 8.13304 19.2384 7.37223 18.3047C6.61143 17.3709 6.19411 16.2044 6.19 15V14.93C6.9148 15.3403 7.72769 15.5701 8.56 15.6C7.83928 15.1169 7.24873 14.4635 6.84059 13.6979C6.43245 12.9322 6.2193 12.0777 6.22 11.21C6.21338 10.2756 6.45865 9.35677 6.93 8.55C8.261 10.1669 9.91584 11.4872 11.788 12.4259C13.6601 13.3645 15.7081 13.9007 17.8 14C17.5339 12.867 17.6496 11.6779 18.1291 10.6174C18.6086 9.55696 19.425 8.68464 20.4514 8.13608C21.4778 7.58751 22.6567 7.39344 23.8048 7.58404C24.9529 7.77463 26.0059 8.33921 26.8 9.19C27.9693 8.98445 29.0953 8.58207 30.13 8C29.7383 9.21543 28.9171 10.2464 27.82 10.9C28.8548 10.7751 29.8656 10.4988 30.82 10.08C30.1094 11.1158 29.2266 12.0222 28.21 12.76Z" fill="white"/>
</svg>
