<svg width="130" height="27" viewBox="0 0 130 27" fill="none" xmlns="http://www.w3.org/2000/svg">
<g clip-path="url(#clip0_30_8357)">
<path d="M45.6896 7.20996V4.20996H33.0996V7.20996H37.4796V19.21H33.0996V22.21H45.6896V19.21H40.8996V7.20996H45.6896Z" fill="#02033B"/>
<path d="M66.5898 7.32998H61.5898V12.27C61.5898 12.27 64.2998 12.19 66.5298 12.19C68.7598 12.19 69.3198 11.71 69.3198 9.47998C69.3198 6.92998 66.6098 7.31998 66.6098 7.31998" fill="#02033B"/>
<path d="M52.0996 26.53H78.0996V0H52.0996V26.53ZM72.8896 17.84V22H69.2996V18.1C69.2996 18.1 69.2996 15.1 67.2296 15.1C65.1596 15.1 61.5696 15.18 61.5696 15.18V22.11H58.0696V4.22H68.4296C70.7596 4.09 72.7596 5.87 72.8896 8.21C72.8896 8.21 72.8896 8.21 72.8896 8.22C72.9096 8.43 72.9096 8.64 72.8896 8.85C72.8896 13.71 70.1896 13.95 70.1896 13.95C70.1896 13.95 72.8896 14.11 72.8896 17.85" fill="#02033B"/>
<path d="M82.9199 4.21997V7.21997H85.3899V19.22H82.9199V22.17H98.1399V16.33H95.1399V19.2H88.6599V14.34H93.4399V11.39H88.6599V7.16997H94.8699V9.99997H98.1399V4.21997H82.9199Z" fill="#02033B"/>
<path d="M118.85 7.25H113.43V19.25H119.09C121.8 19.25 121.88 15.74 121.88 15.74V11.07C121.88 7.01 118.88 7.25 118.88 7.25" fill="#02033B"/>
<path d="M104 26.53H130V0H104V26.53ZM119.3 22.3C112.77 22.3 109.82 22.38 109.82 22.38V4.3H117.54C117.54 4.3 125.54 3.42 125.54 10.59V15.59C125.54 15.59 125.86 22.28 119.33 22.28" fill="#02033B"/>
<path d="M0 26.53H26.05V0H0V26.53ZM20.71 22.14H16.25L13.38 9.14L10.27 22.22H5.89L2.23 4.3H5.82L8.28 17.92L11.47 4.3L15.37 4.38L18.56 18.16L21 4.3H24.42L20.71 22.14Z" fill="#02033B"/>
</g>
<defs>
<clipPath id="clip0_30_8357">
<rect width="130" height="26.53" fill="white"/>
</clipPath>
</defs>
</svg>
