<svg width="37" height="36" viewBox="0 0 37 36" fill="none" xmlns="http://www.w3.org/2000/svg">
<path d="M32.3275 36H4.0475C3.02376 36 2.04196 35.5933 1.31807 34.8694C0.594177 34.1455 0.1875 33.1637 0.1875 32.14L0.1875 3.86C0.1875 2.83626 0.594177 1.85446 1.31807 1.13057C2.04196 0.406677 3.02376 0 4.0475 0H32.3275C33.3512 0 34.333 0.406677 35.0569 1.13057C35.7808 1.85446 36.1875 2.83626 36.1875 3.86V32.14C36.1875 33.1637 35.7808 34.1455 35.0569 34.8694C34.333 35.5933 33.3512 36 32.3275 36ZM17.8275 9.14C17.7475 9.14 10.3475 9.14 8.5075 9.64C8.00108 9.77791 7.5397 10.0463 7.16945 10.4183C6.79919 10.7903 6.53302 11.2529 6.3975 11.76C6.0566 13.6676 5.88925 15.6022 5.8975 17.54C5.88881 19.4778 6.05616 21.4124 6.3975 23.32C6.53757 23.8215 6.80577 24.278 7.17573 24.6444C7.54569 25.0109 8.00466 25.2747 8.5075 25.41C10.3475 25.91 17.7475 25.91 17.8275 25.91C17.9075 25.91 25.3075 25.91 27.1375 25.41C27.6431 25.2803 28.105 25.0183 28.4758 24.651C28.8466 24.2837 29.113 23.8243 29.2475 23.32C29.5937 21.4131 29.7611 19.478 29.7475 17.54C29.7613 15.6053 29.5939 13.6735 29.2475 11.77C29.1179 11.267 28.8599 10.8063 28.4988 10.4329C28.1377 10.0595 27.6859 9.78633 27.1875 9.64C25.3075 9.15 17.8975 9.14 17.8275 9.14ZM15.3875 21.14V14L21.6175 17.55L15.3875 21.09V21.14Z" fill="white"/>
</svg>
